<svg width="22" height="22" viewBox="0 0 22 22" fill="none" xmlns="http://www.w3.org/2000/svg">
<path fill-rule="evenodd" clip-rule="evenodd" d="M10.25 13.9995C10.25 13.4025 10.013 12.8303 9.59075 12.4088C9.16925 11.9865 8.597 11.7495 8 11.7495C6.5105 11.7495 4.2395 11.7495 2.75 11.7495C2.153 11.7495 1.58075 11.9865 1.15925 12.4088C0.736998 12.8303 0.5 13.4025 0.5 13.9995V19.2495C0.5 19.8465 0.736998 20.4188 1.15925 20.8403C1.58075 21.2625 2.153 21.4995 2.75 21.4995H8C8.597 21.4995 9.16925 21.2625 9.59075 20.8403C10.013 20.4188 10.25 19.8465 10.25 19.2495V13.9995ZM21.5 13.9995C21.5 13.4025 21.263 12.8303 20.8408 12.4088C20.4193 11.9865 19.847 11.7495 19.25 11.7495C17.7605 11.7495 15.4895 11.7495 14 11.7495C13.403 11.7495 12.8307 11.9865 12.4092 12.4088C11.987 12.8303 11.75 13.4025 11.75 13.9995V19.2495C11.75 19.8465 11.987 20.4188 12.4092 20.8403C12.8307 21.2625 13.403 21.4995 14 21.4995H19.25C19.847 21.4995 20.4193 21.2625 20.8408 20.8403C21.263 20.4188 21.5 19.8465 21.5 19.2495V13.9995ZM18.2158 10.0943L21.3447 6.96528C22.223 6.08703 22.223 4.66203 21.3447 3.78378L18.2158 0.654781C17.3375 -0.223469 15.9125 -0.223469 15.0342 0.654781L11.9053 3.78378C11.027 4.66203 11.027 6.08703 11.9053 6.96528L15.0342 10.0943C15.9125 10.9725 17.3375 10.9725 18.2158 10.0943ZM10.25 2.74953C10.25 2.15253 10.013 1.58028 9.59075 1.15878C9.16925 0.736529 8.597 0.499531 8 0.499531C6.5105 0.499531 4.2395 0.499531 2.75 0.499531C2.153 0.499531 1.58075 0.736529 1.15925 1.15878C0.736998 1.58028 0.5 2.15253 0.5 2.74953V7.99953C0.5 8.59653 0.736998 9.16878 1.15925 9.59028C1.58075 10.0125 2.153 10.2495 2.75 10.2495H8C8.597 10.2495 9.16925 10.0125 9.59075 9.59028C10.013 9.16878 10.25 8.59653 10.25 7.99953V2.74953Z" fill="white"/>
</svg>
