<svg width="14" height="14" viewBox="0 0 14 14" fill="none" xmlns="http://www.w3.org/2000/svg">
<g clip-path="url(#clip0_275_5709)">
<path d="M13.364 6.68188H10.8185C10.4671 6.68188 10.1821 6.96683 10.1821 7.31825C10.1821 7.66967 10.4671 7.95462 10.8185 7.95462H13.364C13.7154 7.95462 14.0003 7.66967 14.0003 7.31825C14.0003 6.96683 13.7155 6.68188 13.364 6.68188Z" fill="#807F81"/>
<path d="M3.18183 6.68188H0.636367C0.284944 6.68188 0 6.96683 0 7.31825C0 7.66967 0.284944 7.95462 0.636367 7.95462H3.18183C3.53326 7.95462 3.8182 7.66967 3.8182 7.31825C3.8182 6.96683 3.53326 6.68188 3.18183 6.68188Z" fill="#807F81" fill-opacity="0.2"/>
<path d="M11.0498 2.36828L9.24987 4.16824C9.00135 4.4167 9.00135 4.81964 9.24987 5.06816C9.3741 5.19245 9.53698 5.2546 9.69979 5.2546C9.86268 5.2546 10.0256 5.19252 10.1498 5.06816L11.9498 3.26819C12.1983 3.01974 12.1983 2.6168 11.9498 2.36828C11.7013 2.11975 11.2984 2.11975 11.0498 2.36828Z" fill="#807F81" fill-opacity="0.8"/>
<path d="M7.00062 11.1362C6.6492 11.1362 6.36426 11.4212 6.36426 11.7726V13.0453C6.36426 13.3968 6.6492 13.6817 7.00062 13.6817C7.35205 13.6817 7.63699 13.3968 7.63699 13.0453V11.7726C7.63699 11.4212 7.35205 11.1362 7.00062 11.1362Z" fill="#807F81" fill-opacity="0.05"/>
<path d="M3.85055 9.56798L2.05065 11.3679C1.80213 11.6165 1.80213 12.0193 2.05065 12.2679C2.17488 12.3921 2.33776 12.4542 2.50064 12.4542C2.66352 12.4542 2.8264 12.3921 2.95057 12.2679L4.75047 10.4679C4.99899 10.2194 4.99899 9.81651 4.75047 9.56798C4.50201 9.31946 4.09907 9.31946 3.85055 9.56798Z" fill="#807F81" fill-opacity="0.1"/>
<path d="M7.00062 0.318115C6.6492 0.318115 6.36426 0.60306 6.36426 0.954482V3.49995C6.36426 3.85137 6.6492 4.13632 7.00062 4.13632C7.35205 4.13632 7.63699 3.85137 7.63699 3.49995V0.954482C7.63699 0.60306 7.35205 0.318115 7.00062 0.318115Z" fill="#807F81" fill-opacity="0.6"/>
<path d="M2.95057 2.36828C2.70211 2.11975 2.29917 2.11975 2.05065 2.36828C1.80213 2.6168 1.80213 3.01967 2.05065 3.26819L3.85055 5.06816C3.97478 5.19245 4.13766 5.2546 4.30054 5.2546C4.46336 5.2546 4.6263 5.19245 4.75047 5.06816C4.99899 4.8197 4.99899 4.41676 4.75047 4.16824L2.95057 2.36828Z" fill="#807F81" fill-opacity="0.4"/>
</g>
<defs>
<clipPath id="clip0_275_5709">
<rect width="14" height="14" fill="white"/>
</clipPath>
</defs>
</svg>
