<svg width="24" height="24" viewBox="0 0 24 24" fill="none" xmlns="http://www.w3.org/2000/svg">
  <path fill-rule="evenodd" clip-rule="evenodd" d="M10.9968 0.571045H13.0032C13.2891 0.571045 13.5229 0.804904 13.5229 1.09079V2.03734C13.5229 2.60987 13.8495 3.09873 14.3785 3.31783C14.9074 3.53692 15.4841 3.42222 15.8889 3.0174L16.5582 2.34808C16.7603 2.14595 17.0911 2.14595 17.2932 2.34808L18.712 3.76684C18.9141 3.96897 18.9141 4.29972 18.712 4.50184L18.0427 5.17117C17.6378 5.57598 17.5232 6.15264 17.7422 6.68158C17.9613 7.21051 18.4502 7.53714 19.0227 7.53714H19.9693C20.2551 7.53714 20.489 7.77104 20.489 8.05689V8.11229C19.3833 8.22639 18.2955 8.51697 17.2296 8.96729C16.8661 9.12086 16.6836 9.53073 16.8127 9.90358L16.9038 10.1667C16.4362 10.1157 16.0035 10.0118 15.5781 9.88844C15.6395 9.62223 15.6719 9.34492 15.6719 9.06011C15.6719 7.03215 14.0279 5.38815 12 5.38815C9.972 5.38815 8.32805 7.03215 8.32805 9.06011C8.32805 9.63372 8.45967 10.1766 8.69419 10.6602C8.41945 10.6671 8.14992 10.657 7.87997 10.6286C7.58827 10.5978 7.29436 10.5454 6.99112 10.4698L7.1872 9.90358C7.3163 9.53073 7.13381 9.12086 6.77034 8.96729C5.70441 8.51697 4.61658 8.22639 3.51084 8.11229V8.05689C3.51084 7.77104 3.74475 7.53714 4.03059 7.53714H4.97714C5.54967 7.53714 6.03853 7.21051 6.25763 6.68158C6.47672 6.15264 6.36202 5.57598 5.95716 5.17117L5.28797 4.5018C5.08584 4.29967 5.08584 3.96892 5.28797 3.7668L6.70673 2.34803C6.90886 2.1459 7.23961 2.1459 7.44173 2.34803L8.11102 3.01736C8.51588 3.42217 9.09248 3.53687 9.62142 3.31783C10.1504 3.09873 10.477 2.60987 10.477 2.03734V1.09075C10.477 0.804904 10.7109 0.571045 10.9968 0.571045ZM9.78375 20.2585C9.64875 20.1197 9.65184 19.8977 9.79059 19.7627C9.92934 19.6277 10.1513 19.6308 10.2863 19.7696C11.1716 20.6767 12.0513 21.5861 12.9469 22.4816C13.2489 22.7837 13.742 22.7836 14.044 22.4816C14.3452 22.1804 14.3452 21.6859 14.0439 21.3847C14.0453 21.3834 12.0775 19.3684 11.8982 19.1847C11.7632 19.0459 11.7663 18.824 11.9051 18.689C12.0439 18.554 12.2659 18.5571 12.4009 18.6958C13.2163 19.5314 14.0265 20.3729 14.8512 21.1977C15.1524 21.499 15.647 21.4989 15.9481 21.1977C16.2501 20.8958 16.2503 20.4027 15.9482 20.1007C15.9495 20.0994 13.9818 18.0844 13.8025 17.9007C13.6675 17.7619 13.6706 17.54 13.8094 17.405C13.9482 17.27 14.1702 17.2731 14.3052 17.4119C15.0874 18.2133 15.8647 19.0229 16.6558 19.814C16.9553 20.1136 17.4532 20.1136 17.7528 19.814C18.0594 19.5073 18.0418 19.018 17.7473 18.71C17.5828 18.5373 17.4182 18.3646 17.2533 18.1922C17.0121 18.094 16.7877 17.946 16.5924 17.7509L12.5071 13.6682C12.1629 13.9488 11.6647 14.3917 11.6647 14.9979C11.6647 15.7978 11.2856 16.4533 10.7088 16.9202C10.0928 17.4188 9.24825 17.6978 8.412 17.6978C8.21784 17.6978 8.06044 17.5404 8.06044 17.3462V13.5935C8.06044 13.0328 8.2777 12.5323 8.68603 12.1484L9.59902 11.2899C8.97792 11.3725 8.39723 11.3883 7.80862 11.3263C7.4633 11.2899 7.11727 11.2269 6.76083 11.1351L4.66008 17.2011C5.73206 17.7395 6.46303 18.4847 7.28175 19.3237C7.6028 19.6527 11.1271 23.2761 11.1338 23.2694C11.3506 23.4863 11.7082 23.4789 11.9256 23.2668C12.1489 23.0475 12.1508 22.6798 11.9295 22.4584L9.78375 20.2585ZM17.1585 10.9021C16.2639 10.8483 15.4973 10.6058 14.7092 10.3563C13.3639 9.93053 12.2975 9.71533 11.1438 10.8001L9.16669 12.6591C8.8943 12.9152 8.76356 13.2196 8.76356 13.5933V16.975C9.32386 16.9129 9.86114 16.7043 10.2666 16.3761C10.6859 16.0367 10.9615 15.5659 10.9615 14.9977C10.9615 14.014 11.6992 13.4186 12.1394 13.0633C12.1523 13.0529 12.2966 12.933 12.2967 12.9332C12.434 12.8107 12.6447 12.815 12.777 12.9465L17.0868 17.2536C17.4637 17.6303 17.9859 17.7349 18.4792 17.5336C18.7785 17.4115 19.053 17.2788 19.3206 17.1455L17.1585 10.9021ZM23.4844 8.95586C21.4906 8.55297 19.4969 8.77267 17.5032 9.61492C17.4804 9.62453 17.469 9.65008 17.4771 9.67342L20.3177 17.8761C20.3244 17.8953 20.3417 17.9077 20.362 17.9077H23.4844V8.95586ZM0.515625 8.95586V17.9077H3.63797C3.65831 17.9077 3.67561 17.8953 3.68227 17.8761L6.52289 9.67342C6.531 9.65003 6.51961 9.62453 6.49683 9.61492C4.50309 8.77267 2.50936 8.55297 0.515625 8.95586Z" fill="white"/>
</svg>
