<svg width="24" height="24" viewBox="0 0 24 24" fill="none" xmlns="http://www.w3.org/2000/svg">
  <g clip-path="url(#clip0_91_2092)">
    <path d="M21.36 9.96C21.12 8.88 20.64 7.8 20.04 6.84L21.24 4.32L19.56 2.64L17.04 3.84C16.08 3.24 15.12 2.88 14.04 2.64L13.2 0H10.8L9.84 2.64C8.76 2.88 7.8 3.36 6.84 3.96L4.32 2.76L2.64 4.32L3.84 6.84C3.24 7.8 2.88 8.76 2.64 9.84L0 10.8V13.2L2.64 14.16C2.88 15.24 3.36 16.32 3.84 17.16L2.64 19.68L4.32 21.36L6.84 20.16C7.8 20.76 8.76 21.24 9.84 21.48L10.8 24H13.2L14.16 21.36C14.52 21.24 15 21.12 15.36 21L13.44 19.08C8.88 19.92 4.8 16.56 4.8 12C4.8 8.04 8.04 4.8 12 4.8C16.44 4.8 19.8 8.76 19.08 12.96L21.12 15C21.24 14.64 21.36 14.4 21.36 14.04L24 13.2V10.8L21.36 9.96Z" fill="white"/>
    <path d="M23.5199 20.88L16.4399 13.8C18.1199 10.08 14.6399 6.11997 10.7999 7.19997L12.9599 9.35997C13.9199 10.32 13.9199 11.88 12.9599 12.72C12.1199 13.68 10.4399 13.68 9.59994 12.72L7.43994 10.68C6.35994 14.04 9.83994 17.88 13.7999 16.32L20.8799 23.4C21.5999 24.12 22.6799 24.12 23.3999 23.4C24.1199 22.8 24.1199 21.6 23.5199 20.88Z" fill="white"/>
  </g>
  <defs>
    <clipPath id="clip0_91_2092">
      <rect width="24" height="24" fill="white"/>
    </clipPath>
  </defs>
</svg>
