<svg width="24" height="17" viewBox="0 0 24 17" fill="none" xmlns="http://www.w3.org/2000/svg">
  <path d="M4.5 9.25012C2.84583 9.25012 1.5 7.90466 1.5 6.25012C1.5 4.59558 2.84583 3.25012 4.5 3.25012C6.15417 3.25012 7.5 4.59558 7.5 6.25012C7.5 7.90466 6.15417 9.25012 4.5 9.25012ZM5.82751 9.75256C4.97241 10.0829 4.02759 10.0829 3.17249 9.75256C2.95496 9.6698 2.7074 9.69983 2.51257 9.81995C1.40991 10.5179 0.75 11.7023 0.75 13.0001V16.0001C0.75 16.4125 1.08765 16.7501 1.5 16.7501H5.25V13.0001C5.25 11.8378 5.55762 10.7054 6.11243 9.71521C6.01501 9.69983 5.9176 9.71521 5.82751 9.75256ZM19.5 9.25012C21.1542 9.25012 22.5 7.90466 22.5 6.25012C22.5 4.59558 21.1542 3.25012 19.5 3.25012C17.8458 3.25012 16.5 4.59558 16.5 6.25012C16.5 7.90466 17.8458 9.25012 19.5 9.25012ZM21.4874 9.81995C21.2926 9.69983 21.045 9.6698 20.8275 9.75256C19.9724 10.0829 19.0276 10.0829 18.1725 9.75256C18.0824 9.71521 17.985 9.69983 17.8876 9.71521C18.4424 10.7054 18.75 11.8378 18.75 13.0001V16.7501H22.5C22.9124 16.7501 23.25 16.4125 23.25 16.0001V13.0001C23.25 11.7023 22.5901 10.5179 21.4874 9.81995ZM12 7.75012C9.93237 7.75012 8.25 6.06775 8.25 4.00012C8.25 1.9325 9.93237 0.250122 12 0.250122C14.0676 0.250122 15.75 1.9325 15.75 4.00012C15.75 6.06775 14.0676 7.75012 12 7.75012ZM17.25 13.0001C17.25 11.3273 16.4476 9.75256 15.0974 8.77039C14.8726 8.60486 14.5726 8.58289 14.3251 8.70227C13.8226 8.95789 13.2902 9.11536 12.75 9.19006V13.0001C12.75 13.4125 12.4124 13.7501 12 13.7501C11.5876 13.7501 11.25 13.4125 11.25 13.0001V9.19006C10.7098 9.11536 10.1774 8.95789 9.67493 8.70227C9.42737 8.58289 9.12744 8.60486 8.90259 8.77039C7.55237 9.75256 6.75 11.3273 6.75 13.0001V16.7501H17.25V13.0001Z" fill="white"/>
</svg>
